<svg xmlns="http://www.w3.org/2000/svg" data-anvil-schema="anvil-serving.benchmark-graph-data/v1" width="1280" height="840" viewBox="0 0 1280 840" role="img" aria-labelledby="title desc"><title id="title">ThinkingCap RTX 5090: 32K and 128K complete recipes</title><desc id="desc">100 strict requests per whole recipe; nominal 4K/C1, 32 code words plus canary, 45 output tokens, thinking off, unique cache. Both use MTP3 and BF16 KV; configured context, weight placement and memory fraction differ. No isolated offload/context speedup claim.</desc><style>text{font-family:Inter,Segoe UI,Arial,sans-serif}.title{font-size:27px;font-weight:700}.sub{font-size:14px;fill:#9fb0c8}.panel-title{font-size:17px;font-weight:650}.axis{font-size:11px;fill:#aab7c8}.value{font-size:10px;font-weight:600}.legend{font-size:12px}.grid{stroke:#31425d;stroke-width:1}.line{fill:none;stroke-width:3}.dot{stroke:#0b1220;stroke-width:2}</style><rect width="1280" height="840" fill="#0b1220"/><text x="26" y="42" class="title" fill="#f4f7fb">ThinkingCap RTX 5090: 32K and 128K complete recipes</text><text x="26" y="70" class="sub">100 strict requests per whole recipe; nominal 4K/C1, 32 code words plus canary, 45 output tokens, thinking off, unique cache. Both use MTP3 and BF16 KV; configured context, weight placement and memory fraction differ. No isolated offload/context speedup claim.</text><text x="26" y="96" class="sub">Values are derived from the retained JSON artifacts named in the graph data file.</text><rect x="26" y="118" width="600" height="330" rx="14" fill="#111c2e" stroke="#263853"/><text x="44" y="146" class="panel-title" fill="#f4f7fb">Median TTFT</text><text x="44" y="166" class="axis">p50 TTFT (ms)</text><line x1="88" y1="362.0" x2="600" y2="362.0" class="grid"/><text x="80" y="366.0" text-anchor="end" class="axis">0.00</text><line x1="88" y1="315.5" x2="600" y2="315.5" class="grid"/><text x="80" y="319.5" text-anchor="end" class="axis">841</text><line x1="88" y1="269.0" x2="600" y2="269.0" class="grid"/><text x="80" y="273.0" text-anchor="end" class="axis">1,682</text><line x1="88" y1="222.5" x2="600" y2="222.5" class="grid"/><text x="80" y="226.5" text-anchor="end" class="axis">2,523</text><line x1="88" y1="176.0" x2="600" y2="176.0" class="grid"/><text x="80" y="180.0" text-anchor="end" class="axis">3,363</text><text x="344.0" y="382" text-anchor="middle" class="axis">4K / C1 / 45 output tokens</text><text x="344.0" y="405" text-anchor="middle" class="axis">matched 100-request short-output population</text><circle cx="344.0" cy="336.8" r="5" class="dot" fill="#4cc9f0"/><text x="344.0" y="354.8" text-anchor="middle" class="value" fill="#4cc9f0">455</text><circle cx="46" cy="427" r="5" fill="#4cc9f0"/><text x="57" y="431" class="legend" fill="#dce6f3">32K: MTP3, GPU vision</text><circle cx="344.0" cy="195.9" r="5" class="dot" fill="#f72585"/><text x="344.0" y="186.9" text-anchor="middle" class="value" fill="#f72585">3,003</text><circle cx="261" cy="427" r="5" fill="#f72585"/><text x="272" y="431" class="legend" fill="#dce6f3">128K: MTP3, generic UVA3</text><rect x="654" y="118" width="600" height="330" rx="14" fill="#111c2e" stroke="#263853"/><text x="672" y="146" class="panel-title" fill="#f4f7fb">Median decode rate</text><text x="672" y="166" class="axis">p50 decode (tok/s)</text><line x1="716" y1="362.0" x2="1228" y2="362.0" class="grid"/><text x="708" y="366.0" text-anchor="end" class="axis">0.00</text><line x1="716" y1="315.5" x2="1228" y2="315.5" class="grid"/><text x="708" y="319.5" text-anchor="end" class="axis">44.3</text><line x1="716" y1="269.0" x2="1228" y2="269.0" class="grid"/><text x="708" y="273.0" text-anchor="end" class="axis">88.7</text><line x1="716" y1="222.5" x2="1228" y2="222.5" class="grid"/><text x="708" y="226.5" text-anchor="end" class="axis">133</text><line x1="716" y1="176.0" x2="1228" y2="176.0" class="grid"/><text x="708" y="180.0" text-anchor="end" class="axis">177</text><text x="972.0" y="382" text-anchor="middle" class="axis">4K / C1 / 45 output tokens</text><text x="972.0" y="405" text-anchor="middle" class="axis">matched 100-request short-output population</text><circle cx="972.0" cy="195.9" r="5" class="dot" fill="#4cc9f0"/><text x="972.0" y="213.9" text-anchor="middle" class="value" fill="#4cc9f0">158</text><circle cx="674" cy="427" r="5" fill="#4cc9f0"/><text x="685" y="431" class="legend" fill="#dce6f3">32K: MTP3, GPU vision</text><circle cx="972.0" cy="307.6" r="5" class="dot" fill="#f72585"/><text x="972.0" y="298.6" text-anchor="middle" class="value" fill="#f72585">51.9</text><circle cx="889" cy="427" r="5" fill="#f72585"/><text x="900" y="431" class="legend" fill="#dce6f3">128K: MTP3, generic UVA3</text><rect x="26" y="478" width="600" height="330" rx="14" fill="#111c2e" stroke="#263853"/><text x="44" y="506" class="panel-title" fill="#f4f7fb">Median end-to-end time</text><text x="44" y="526" class="axis">p50 E2E (ms)</text><line x1="88" y1="722.0" x2="600" y2="722.0" class="grid"/><text x="80" y="726.0" text-anchor="end" class="axis">0.00</text><line x1="88" y1="675.5" x2="600" y2="675.5" class="grid"/><text x="80" y="679.5" text-anchor="end" class="axis">1,079</text><line x1="88" y1="629.0" x2="600" y2="629.0" class="grid"/><text x="80" y="633.0" text-anchor="end" class="axis">2,158</text><line x1="88" y1="582.5" x2="600" y2="582.5" class="grid"/><text x="80" y="586.5" text-anchor="end" class="axis">3,236</text><line x1="88" y1="536.0" x2="600" y2="536.0" class="grid"/><text x="80" y="540.0" text-anchor="end" class="axis">4,315</text><text x="344.0" y="742" text-anchor="middle" class="axis">4K / C1 / 45 output tokens</text><text x="344.0" y="765" text-anchor="middle" class="axis">matched 100-request short-output population</text><circle cx="344.0" cy="690.4" r="5" class="dot" fill="#4cc9f0"/><text x="344.0" y="708.4" text-anchor="middle" class="value" fill="#4cc9f0">733</text><circle cx="46" cy="787" r="5" fill="#4cc9f0"/><text x="57" y="791" class="legend" fill="#dce6f3">32K: MTP3, GPU vision</text><circle cx="344.0" cy="555.9" r="5" class="dot" fill="#f72585"/><text x="344.0" y="546.9" text-anchor="middle" class="value" fill="#f72585">3,853</text><circle cx="261" cy="787" r="5" fill="#f72585"/><text x="272" y="791" class="legend" fill="#dce6f3">128K: MTP3, generic UVA3</text><rect x="654" y="478" width="600" height="330" rx="14" fill="#111c2e" stroke="#263853"/><text x="672" y="506" class="panel-title" fill="#f4f7fb">Aggregate throughput</text><text x="672" y="526" class="axis">eligible throughput (tok/s)</text><line x1="716" y1="722.0" x2="1228" y2="722.0" class="grid"/><text x="708" y="726.0" text-anchor="end" class="axis">0.00</text><line x1="716" y1="675.5" x2="1228" y2="675.5" class="grid"/><text x="708" y="679.5" text-anchor="end" class="axis">17.1</text><line x1="716" y1="629.0" x2="1228" y2="629.0" class="grid"/><text x="708" y="633.0" text-anchor="end" class="axis">34.2</text><line x1="716" y1="582.5" x2="1228" y2="582.5" class="grid"/><text x="708" y="586.5" text-anchor="end" class="axis">51.4</text><line x1="716" y1="536.0" x2="1228" y2="536.0" class="grid"/><text x="708" y="540.0" text-anchor="end" class="axis">68.5</text><text x="972.0" y="742" text-anchor="middle" class="axis">4K / C1 / 45 output tokens</text><text x="972.0" y="765" text-anchor="middle" class="axis">matched 100-request short-output population</text><circle cx="972.0" cy="555.9" r="5" class="dot" fill="#4cc9f0"/><text x="972.0" y="573.9" text-anchor="middle" class="value" fill="#4cc9f0">61.1</text><circle cx="674" cy="787" r="5" fill="#4cc9f0"/><text x="685" y="791" class="legend" fill="#dce6f3">32K: MTP3, GPU vision</text><circle cx="972.0" cy="690.3" r="5" class="dot" fill="#f72585"/><text x="972.0" y="681.3" text-anchor="middle" class="value" fill="#f72585">11.7</text><circle cx="889" cy="787" r="5" fill="#f72585"/><text x="900" y="791" class="legend" fill="#dce6f3">128K: MTP3, generic UVA3</text></svg>
