<svg xmlns="http://www.w3.org/2000/svg" data-anvil-schema="anvil-serving.benchmark-graph-data/v1" width="1280" height="480" viewBox="0 0 1280 480" role="img" aria-labelledby="title desc"><title id="title">GLM v0.4.2 retained-baseline runtime comparison</title><desc id="desc">Direct C1 strict capacity; baseline retained after turnover failure</desc><style>text{font-family:Inter,Segoe UI,Arial,sans-serif}.title{font-size:27px;font-weight:700}.sub{font-size:14px;fill:#9fb0c8}.panel-title{font-size:17px;font-weight:650}.axis{font-size:11px;fill:#aab7c8}.value{font-size:10px;font-weight:600}.legend{font-size:12px}.grid{stroke:#31425d;stroke-width:1}.line{fill:none;stroke-width:3}.dot{stroke:#0b1220;stroke-width:2}</style><rect width="1280" height="480" fill="#0b1220"/><text x="26" y="42" class="title" fill="#f4f7fb">GLM v0.4.2 retained-baseline runtime comparison</text><text x="26" y="70" class="sub">Direct C1 strict capacity; baseline retained after turnover failure</text><text x="26" y="96" class="sub">Values are derived from the retained JSON artifacts named in the graph data file.</text><rect x="26" y="118" width="600" height="330" rx="14" fill="#111c2e" stroke="#263853"/><text x="44" y="146" class="panel-title" fill="#f4f7fb">Median TTFT</text><text x="44" y="166" class="axis">milliseconds</text><line x1="88" y1="362.0" x2="600" y2="362.0" class="grid"/><text x="80" y="366.0" text-anchor="end" class="axis">0.00</text><line x1="88" y1="315.5" x2="600" y2="315.5" class="grid"/><text x="80" y="319.5" text-anchor="end" class="axis">4,183</text><line x1="88" y1="269.0" x2="600" y2="269.0" class="grid"/><text x="80" y="273.0" text-anchor="end" class="axis">8,366</text><line x1="88" y1="222.5" x2="600" y2="222.5" class="grid"/><text x="80" y="226.5" text-anchor="end" class="axis">12,550</text><line x1="88" y1="176.0" x2="600" y2="176.0" class="grid"/><text x="80" y="180.0" text-anchor="end" class="axis">16,733</text><text x="88.0" y="382" text-anchor="middle" class="axis">4K</text><text x="600.0" y="382" text-anchor="middle" class="axis">120K</text><text x="344.0" y="405" text-anchor="middle" class="axis">target context</text><polyline points="88.0,356.5 600.0,195.9" class="line" stroke="#4cc9f0"/><circle cx="88.0" cy="356.5" r="5" class="dot" fill="#4cc9f0"/><text x="88.0" y="329.5" text-anchor="middle" class="value" fill="#4cc9f0">496</text><circle cx="600.0" cy="195.9" r="5" class="dot" fill="#4cc9f0"/><text x="600.0" y="213.9" text-anchor="middle" class="value" fill="#4cc9f0">14,940</text><circle cx="46" cy="427" r="5" fill="#4cc9f0"/><text x="57" y="431" class="legend" fill="#dce6f3">Baseline</text><polyline points="88.0,356.8 600.0,198.1" class="line" stroke="#f72585"/><circle cx="88.0" cy="356.8" r="5" class="dot" fill="#f72585"/><text x="88.0" y="347.8" text-anchor="middle" class="value" fill="#f72585">470</text><circle cx="600.0" cy="198.1" r="5" class="dot" fill="#f72585"/><text x="600.0" y="189.1" text-anchor="middle" class="value" fill="#f72585">14,744</text><circle cx="261" cy="427" r="5" fill="#f72585"/><text x="272" y="431" class="legend" fill="#dce6f3">Candidate</text><rect x="654" y="118" width="600" height="330" rx="14" fill="#111c2e" stroke="#263853"/><text x="672" y="146" class="panel-title" fill="#f4f7fb">Median decode</text><text x="672" y="166" class="axis">tokens / second</text><line x1="716" y1="362.0" x2="1228" y2="362.0" class="grid"/><text x="708" y="366.0" text-anchor="end" class="axis">0.00</text><line x1="716" y1="315.5" x2="1228" y2="315.5" class="grid"/><text x="708" y="319.5" text-anchor="end" class="axis">84.0</text><line x1="716" y1="269.0" x2="1228" y2="269.0" class="grid"/><text x="708" y="273.0" text-anchor="end" class="axis">168</text><line x1="716" y1="222.5" x2="1228" y2="222.5" class="grid"/><text x="708" y="226.5" text-anchor="end" class="axis">252</text><line x1="716" y1="176.0" x2="1228" y2="176.0" class="grid"/><text x="708" y="180.0" text-anchor="end" class="axis">336</text><text x="716.0" y="382" text-anchor="middle" class="axis">4K</text><text x="1228.0" y="382" text-anchor="middle" class="axis">120K</text><text x="972.0" y="405" text-anchor="middle" class="axis">target context</text><polyline points="716.0,202.2 1228.0,220.6" class="line" stroke="#4cc9f0"/><circle cx="716.0" cy="202.2" r="5" class="dot" fill="#4cc9f0"/><text x="716.0" y="220.2" text-anchor="middle" class="value" fill="#4cc9f0">289</text><circle cx="1228.0" cy="220.6" r="5" class="dot" fill="#4cc9f0"/><text x="1228.0" y="238.6" text-anchor="middle" class="value" fill="#4cc9f0">255</text><circle cx="674" cy="427" r="5" fill="#4cc9f0"/><text x="685" y="431" class="legend" fill="#dce6f3">Baseline</text><polyline points="716.0,195.9 1228.0,196.2" class="line" stroke="#f72585"/><circle cx="716.0" cy="195.9" r="5" class="dot" fill="#f72585"/><text x="716.0" y="186.9" text-anchor="middle" class="value" fill="#f72585">300</text><circle cx="1228.0" cy="196.2" r="5" class="dot" fill="#f72585"/><text x="1228.0" y="187.2" text-anchor="middle" class="value" fill="#f72585">299</text><circle cx="889" cy="427" r="5" fill="#f72585"/><text x="900" y="431" class="legend" fill="#dce6f3">Candidate</text></svg>
